<?xml version="1.0" encoding="UTF-8" standalone="no"?>
<svg
   width="149.67836"
   height="126.49878"
   version="1.1"
   id="svg83"
   sodipodi:docname="pykanto-logo-grey-04.svg"
   inkscape:version="1.2.2 (b0a8486541, 2022-12-01, custom)"
   xmlns:inkscape="http://www.inkscape.org/namespaces/inkscape"
   xmlns:sodipodi="http://sodipodi.sourceforge.net/DTD/sodipodi-0.dtd"
   xmlns="http://www.w3.org/2000/svg"
   xmlns:svg="http://www.w3.org/2000/svg">
  <defs
     id="defs87" />
  <sodipodi:namedview
     id="namedview85"
     pagecolor="#ffffff"
     bordercolor="#000000"
     borderopacity="0.25"
     inkscape:showpageshadow="2"
     inkscape:pageopacity="0.0"
     inkscape:pagecheckerboard="0"
     inkscape:deskcolor="#d1d1d1"
     showgrid="false"
     inkscape:zoom="2.9698594"
     inkscape:cx="225.76826"
     inkscape:cy="107.58085"
     inkscape:window-width="1866"
     inkscape:window-height="1132"
     inkscape:window-x="0"
     inkscape:window-y="0"
     inkscape:window-maximized="1"
     inkscape:current-layer="svg_1"
     showguides="true">
    <sodipodi:guide
       position="171.52224,76.410475"
       orientation="1,0"
       id="guide782"
       inkscape:locked="false" />
    <sodipodi:guide
       position="21.088983,-48.955834"
       orientation="0,-1"
       id="guide934"
       inkscape:locked="false" />
    <sodipodi:guide
       position="27.277823,31.441901"
       orientation="1,0"
       id="guide5313"
       inkscape:locked="false" />
    <sodipodi:guide
       position="31.801613,32.394278"
       orientation="1,0"
       id="guide5315"
       inkscape:locked="false" />
    <sodipodi:guide
       position="18.316333,116.05882"
       orientation="0,-1"
       id="guide5317"
       inkscape:locked="false" />
    <sodipodi:guide
       position="22.356923,8.9830413"
       orientation="0,-1"
       id="guide5319"
       inkscape:locked="false" />
    <sodipodi:guide
       position="43.906773,85.754352"
       orientation="0,-1"
       id="guide5321"
       inkscape:locked="false" />
    <sodipodi:guide
       position="50.611063,0.37058733"
       orientation="0,-1"
       id="guide2118"
       inkscape:locked="false" />
  </sodipodi:namedview>
  <g
     data-name="Layer 6"
     id="svg_1"
     transform="translate(-178.52614,-33.072897)">
    <g
       id="g2134"
       inkscape:export-filename="../1142b6ac/pykanto-logo-grey-04-docs.svg"
       inkscape:export-xdpi="96"
       inkscape:export-ydpi="96">
      <g
         id="g780"
         transform="matrix(1.1119684,0,0,1.1119684,-177.20407,0.99416307)">
        <path
           fill="#444444"
           d="m 334.92485,132.094 h 0.18905 a 3.7008363,3.7008363 0 0 0 3.70083,-3.70084 v -3.35183 a 71.304718,71.304718 0 0 1 -7.2708,4.78418 3.7008363,3.7008363 0 0 0 3.38092,2.26849 z"
           class="cls-1"
           id="path53"
           style="stroke-width:0.72708" />
        <path
           fill="#444444"
           d="m 338.81473,42.961285 a 3.7008363,3.7008363 0 0 0 -3.70083,-3.700836 h -0.18905 a 3.7008363,3.7008363 0 0 0 -3.70083,3.700836 v 23.055701 a 21.434313,21.434313 0 0 1 7.59071,-1.541409 z"
           class="cls-1"
           id="path55"
           style="stroke-width:0.72708" />
        <path
           fill="#444444"
           d="m 342.53738,121.98759 v 16.82463 a 3.7008363,3.7008363 0 0 0 3.70084,3.70083 h 0.16723 a 3.7008363,3.7008363 0 0 0 3.70083,-3.70083 v -25.41144 a 54.778194,54.778194 0 0 1 -3.51906,4.46427 47.405604,47.405604 0 0 1 -4.04984,4.12254 z"
           class="cls-1"
           id="path57"
           style="stroke-width:0.72708" />
        <path
           fill="#444444"
           d="m 350.12809,32.549502 a 3.7008363,3.7008363 0 0 0 -3.72264,-3.700836 h -0.18905 a 3.7008363,3.7008363 0 0 0 -3.70083,3.700836 v 32.027866 c 2.63203,0.225395 5.19862,0.443519 7.59071,1.374181 z"
           class="cls-1"
           id="path59"
           style="stroke-width:0.72708" />
        <path
           fill="#444444"
           d="m 361.17244,67.638374 0.26902,-0.08725 V 57.372007 a 3.7008363,3.7008363 0 0 0 -3.70084,-3.700836 h -0.18904 a 3.7008363,3.7008363 0 0 0 -3.70084,3.700836 V 67.68927 a 11.575111,11.575111 0 0 0 7.3217,-0.0509 z"
           class="cls-1"
           id="path61"
           style="stroke-width:0.72708" />
        <path
           fill="#444444"
           d="m 356.87539,75.076401 c -1.67228,1.046995 -3.06827,2.181239 -3.02465,3.729919 v 0 a 3.0464644,3.0464644 0 0 0 0.27629,1.119703 1.7377208,1.7377208 0 0 0 0.79252,0.836142 35.365162,35.365162 0 0 0 6.54372,2.501155 V 72.138998 c -1.54141,0.9961 -3.05374,1.977657 -4.58788,2.937403 z"
           class="cls-1"
           id="path63"
           style="stroke-width:0.72708" />
        <path
           fill="#444444"
           d="m 360.09636,88.076588 c -2.00674,2.602946 -3.6354,5.402203 -3.84625,8.935811 a 28.297947,28.297947 0 0 1 -2.39937,9.881011 v 7.0963 a 3.7008363,3.7008363 0 0 0 3.70084,3.70084 h 0.18904 a 3.7008363,3.7008363 0 0 0 3.70084,-3.70084 V 87.298613 h -0.0654 a 2.4357174,2.4357174 0 0 0 -1.27966,0.777975 z"
           class="cls-1"
           id="path65"
           style="stroke-width:0.72708" />
        <path
           fill="#444444"
           d="m 369.05398,39.81303 h -0.18904 a 3.7008363,3.7008363 0 0 0 -3.70084,3.700836 v 22.888473 a 12.360357,12.360357 0 0 1 4.78419,-0.421707 0.26901953,0.26901953 0 0 1 0.0945,0.494415 c -1.68682,1.09789 -3.29367,2.181239 -4.87871,3.213692 v 14.541597 c 2.18124,0.55258 4.36248,1.068807 6.43466,1.737721 a 0.34172752,0.34172752 0 0 1 0,0.632559 c -2.18124,0.901579 -4.29704,0.72708 -6.45647,0.567122 v 40.665572 a 3.7008363,3.7008363 0 0 0 3.70084,3.70084 h 0.18904 a 3.7008363,3.7008363 0 0 0 3.70811,-3.70084 V 43.492053 a 3.7008363,3.7008363 0 0 0 -3.6863,-3.679023 z"
           class="cls-1"
           id="path67"
           style="stroke-width:0.72708" />
        <path
           fill="#444444"
           d="m 327.50137,67.980102 v -1.221494 c 0,-2.043917 -1.65692,-3.700839 -3.70084,-3.700837 h -0.18904 c -2.04391,3e-6 -3.72703,1.657092 -3.70083,3.700837 l 0.10126,7.898451 c 2.11136,-2.826155 4.57506,-4.689173 7.48945,-6.676957 z"
           class="cls-1"
           id="path69"
           style="stroke-width:0.72708"
           sodipodi:nodetypes="csssscc" />
        <path
           id="rect71"
           style="fill:#444444;stroke-width:0.72708"
           class="cls-1"
           d="m 380.17831,63.813934 h 0.18904 c 2.05027,0 3.70084,1.650573 3.70084,3.700837 v 36.332179 c 0,2.05026 -1.65057,3.70084 -3.70084,3.70084 h -0.18904 c -2.05026,0 -3.70083,-1.65058 -3.70083,-3.70084 V 67.514771 c 0,-2.050264 1.65057,-3.700837 3.70083,-3.700837 z" />
        <path
           id="rect73"
           style="fill:#444444;stroke-width:0.72708"
           class="cls-1"
           d="m 391.49167,78.857216 h 0.18904 c 2.05026,0 3.70084,1.650573 3.70084,3.700836 v 6.252887 c 0,2.050263 -1.65058,3.700836 -3.70084,3.700836 h -0.18904 c -2.05026,0 -3.70084,-1.650573 -3.70084,-3.700836 v -6.252887 c 0,-2.050263 1.65058,-3.700836 3.70084,-3.700836 z" />
      </g>
      <g
         aria-label="docs"
         transform="scale(0.99996794,1.0000321)"
         id="text2055"
         style="font-size:72.8896px;line-height:0px;font-family:'Bobcaygeon Plain BRK';-inkscape-font-specification:'Bobcaygeon Plain BRK';fill:#444444;stroke-width:1.36668">
        <path
           d="m 261.08388,157.1612 q 0,1.02046 -0.72889,1.74935 -0.65601,0.65601 -1.67646,0.65601 -1.4578,0 -2.18669,-1.31201 -2.1138,1.31201 -5.10228,1.31201 -4.8836,0 -7.58051,-3.35292 -2.18669,-2.69692 -2.18669,-6.3414 v -14.57792 q 0,-3.4987 2.18669,-6.2685 2.7698,-3.42582 7.58051,-3.42582 2.76981,0 4.81072,1.16624 v -13.3388 q 0,-0.94756 0.72889,-1.67646 0.7289,-0.7289 1.74936,-0.7289 1.02045,0 1.67646,0.7289 0.72889,0.65601 0.72889,1.67646 z m -4.8836,-21.86688 q 0,-1.67646 -0.7289,-2.84269 -1.16623,-2.04091 -4.08182,-2.04091 -4.8836,0 -4.8836,4.8836 v 14.57792 q 0,1.67646 0.7289,2.8427 1.16623,2.04091 4.1547,2.04091 2.91559,0 4.08182,-2.04091 0.7289,-1.16624 0.7289,-2.8427 z"
           id="path2315" />
        <path
           d="m 283.46093,149.87224 q 0,3.57159 -2.18669,6.26851 -2.7698,3.42581 -7.50762,3.42581 -4.88361,0 -7.58052,-3.35292 -2.18669,-2.69692 -2.18669,-6.3414 v -14.57792 q 0,-3.4987 2.18669,-6.2685 2.7698,-3.42582 7.58052,-3.42582 4.81071,0 7.50762,3.35293 2.18669,2.7698 2.18669,6.34139 z m -4.8836,-14.57792 q 0,-4.8836 -4.81071,-4.8836 -4.88361,0 -4.88361,4.8836 v 14.57792 q 0,1.67646 0.7289,2.8427 1.16623,2.04091 4.15471,2.04091 2.91558,0 4.08181,-2.04091 0.7289,-1.16624 0.7289,-2.8427 z"
           id="path2317" />
        <path
           d="m 300.95438,135.29432 q 0,-4.8836 -4.81071,-4.8836 -2.91559,0 -4.08182,2.04091 -0.80179,1.45779 -0.80179,2.84269 v 14.57792 q 0,1.67646 0.7289,2.8427 1.16623,2.04091 4.15471,2.04091 2.91558,0 4.08181,-2.04091 0.7289,-1.16624 0.7289,-2.8427 0,-0.94756 0.7289,-1.67646 0.72889,-0.7289 1.74935,-0.7289 1.02045,0 1.67646,0.7289 0.72889,0.65601 0.72889,1.67646 0,3.57159 -2.18669,6.26851 -2.7698,3.42581 -7.50762,3.42581 -4.88361,0 -7.58052,-3.35292 -2.18669,-2.69692 -2.18669,-6.3414 v -14.57792 q 0,-3.4987 2.18669,-6.2685 2.7698,-3.42582 7.58052,-3.42582 4.81071,0 7.50762,3.35293 2.18669,2.7698 2.18669,6.34139 0,1.02046 -0.72889,1.74935 -0.65601,0.65601 -1.67646,0.65601 -1.09335,0 -1.82224,-0.65601 -0.65601,-0.72889 -0.65601,-1.74935 z"
           id="path2319" />
        <path
           d="m 323.33143,135.29432 q 0,-4.8836 -4.81072,-4.8836 -2.91558,0 -4.08181,2.04091 -0.80179,1.45779 -0.80179,2.84269 0,1.67646 0.7289,2.8427 1.16623,2.0409 4.1547,2.0409 4.81072,0 7.50763,3.35293 2.18669,2.7698 2.18669,6.34139 0,3.57159 -2.18669,6.26851 -2.7698,3.42581 -7.50763,3.42581 -4.8836,0 -7.58051,-3.35292 -2.18669,-2.69692 -2.18669,-6.3414 0,-0.94756 0.72889,-1.67646 0.7289,-0.7289 1.74935,-0.7289 1.02046,0 1.67646,0.7289 0.7289,0.65601 0.7289,1.67646 0,1.67646 0.7289,2.8427 1.16623,2.04091 4.1547,2.04091 2.91559,0 4.08182,-2.04091 0.7289,-1.16624 0.7289,-2.8427 0,-4.8836 -4.81072,-4.8836 -4.8836,0 -7.58051,-3.35292 -2.18669,-2.69692 -2.18669,-6.3414 0,-3.4987 2.18669,-6.2685 2.7698,-3.42582 7.58051,-3.42582 4.81072,0 7.50763,3.35293 2.18669,2.7698 2.18669,6.34139 0,1.02046 -0.72889,1.74935 -0.65601,0.65601 -1.67647,0.65601 -1.09334,0 -1.82224,-0.65601 -0.656,-0.72889 -0.656,-1.74935 z"
           id="path2321" />
      </g>
    </g>
  </g>
</svg>
