<svg xmlns="http://www.w3.org/2000/svg" viewBox="0 0 555.12 170"><defs><style>.cls-1{fill:#50787a;}</style></defs><g id="Layer_6" data-name="Layer 6"><path class="cls-1" d="M160.13,158.92a7.29,7.29,0,0,1-7.27-7.26V41.29A7.25,7.25,0,0,1,166,37a25.68,25.68,0,0,1,25,.29,25.74,25.74,0,0,1,9.17,9.11,24.1,24.1,0,0,1,3.43,12.66V85.33A24.1,24.1,0,0,1,200.1,98a25.87,25.87,0,0,1-9.17,9.13,24.49,24.49,0,0,1-12.73,3.4,24.12,24.12,0,0,1-10.81-2.45v43.59a7.27,7.27,0,0,1-7.26,7.26ZM178.2,48.46a10.53,10.53,0,0,0-7.63,3.11,10.12,10.12,0,0,0-3.18,7.51V85.33a10.2,10.2,0,0,0,3.18,7.53,10.86,10.86,0,0,0,15.28,0A10.24,10.24,0,0,0,189,85.33V59.08a10.17,10.17,0,0,0-3.15-7.51A10.53,10.53,0,0,0,178.2,48.46Z"/><path class="cls-1" d="M255.38,33.93a7.29,7.29,0,0,1,7.26,7.27v93a23.71,23.71,0,0,1-3.36,12.42,25.33,25.33,0,0,1-9,8.94,24,24,0,0,1-12.48,3.34,25.3,25.3,0,0,1-17.66-7.17q-7.54-7.63-7.54-17.53a7.27,7.27,0,0,1,14.53,0,9.56,9.56,0,0,0,3.15,7.15,10.48,10.48,0,0,0,7.52,3,10,10,0,0,0,7.29-3,9.73,9.73,0,0,0,3-7.2v-24.6a24.25,24.25,0,0,1-22.29-1.16,25.25,25.25,0,0,1-8.85-9A24.29,24.29,0,0,1,213.65,87V41.24a7.27,7.27,0,0,1,14.53,0V87a10.13,10.13,0,0,0,2.91,7.29,9.6,9.6,0,0,0,14,0A10.13,10.13,0,0,0,248,87a6.42,6.42,0,0,1,.13-1.32V41.2a7.31,7.31,0,0,1,7.27-7.27Z"/><path class="cls-1" d="M320.44,100.44a8.43,8.43,0,0,1,.36,2.37,8.68,8.68,0,0,1-1,3.72,6.56,6.56,0,0,1-3.93,3.13,6.82,6.82,0,0,1-2.31.41,7,7,0,0,1-4.16-1.34,7.44,7.44,0,0,1-2.7-3.61l-12.17-36-8.26,8.22v26a7.27,7.27,0,1,1-14.53,0V10.73a7.05,7.05,0,0,1,2.11-5.13,7.28,7.28,0,0,1,10.29,0,7,7,0,0,1,2.13,5.13V56.9L307.5,35.79a7.29,7.29,0,0,1,5.13-2.13,7.19,7.19,0,0,1,5.13,2.13A7.37,7.37,0,0,1,319.89,41a7.19,7.19,0,0,1-2.13,5.13L305.91,57.81a4.87,4.87,0,0,1,.36.82Z"/><path class="cls-1" d="M375.06,51.41a8.32,8.32,0,0,1,.31,2.23v.5a7.81,7.81,0,0,1,.05.86v48.58a7.24,7.24,0,0,1-7.27,7.26,6.92,6.92,0,0,1-5.81-3,25.39,25.39,0,0,1-24.81-.38,26.15,26.15,0,0,1-9.22-9.15,24.29,24.29,0,0,1-3.42-12.71,7.19,7.19,0,0,1,.32-2.18v0a.22.22,0,0,0,0-.13,21.44,21.44,0,0,1,.5-2.23v0a25.21,25.21,0,0,1,8.69-13.24,25.49,25.49,0,0,1,14.83-5.51,8,8,0,0,1,1.22-.09,10.65,10.65,0,0,0,6.29-2,10.94,10.94,0,0,0,4-5.29,10.93,10.93,0,0,0-4.06-4.64,10.87,10.87,0,0,0-15.6,4.23A7.41,7.41,0,0,1,336.87,58a7.29,7.29,0,0,1-2.13.32,7.67,7.67,0,0,1-3.41-.82,7,7,0,0,1-3.58-4.22,6.88,6.88,0,0,1-.37-2.18,7.69,7.69,0,0,1,.82-3.36,25.87,25.87,0,0,1,9.22-10,25.55,25.55,0,0,1,37.64,13.66Zm-24.75,45a10.66,10.66,0,0,0,6.27-2,11,11,0,0,0,4-5.29l.27-.72V74.43a24.62,24.62,0,0,1-9.35,2.18,5.52,5.52,0,0,1-1.23.14,10.6,10.6,0,0,0-6.58,2.2,10.87,10.87,0,0,0-4,5.79c-.09.33-.17.65-.23,1a3.41,3.41,0,0,1-.13.59,10.89,10.89,0,0,0,3.49,7.19A10.45,10.45,0,0,0,350.31,96.36Z"/><path class="cls-1" d="M391.76,110.8a7.29,7.29,0,0,1-7.26-7.27V41.1a7.26,7.26,0,0,1,13.62-3.49,24.19,24.19,0,0,1,23.09.82,25.24,25.24,0,0,1,8.85,9,24.3,24.3,0,0,1,3.29,12.48v43.63a7,7,0,0,1-2.13,5.15,7.27,7.27,0,0,1-10.26,0,6.93,6.93,0,0,1-2.14-5.15V59.9a10.18,10.18,0,0,0-2.9-7.29,9.63,9.63,0,0,0-14,0A10.18,10.18,0,0,0,399,59.9v43.63a7.31,7.31,0,0,1-7.27,7.27Z"/><path class="cls-1" d="M484.84,80a7.27,7.27,0,0,1,7.26,7.26,23.71,23.71,0,0,1-3.36,12.42,25.41,25.41,0,0,1-9,8.94,25,25,0,0,1-25,0,25.41,25.41,0,0,1-9-8.94,23.71,23.71,0,0,1-3.36-12.42V10.73a7,7,0,0,1,2.13-5.13,7.25,7.25,0,0,1,10.27,0A7,7,0,0,1,457,10.73V34h21.88A7.26,7.26,0,0,1,484,46.39a7,7,0,0,1-5.13,2.12H457V87.23a9.74,9.74,0,0,0,3,7.2,10.42,10.42,0,0,0,14.57,0,9.74,9.74,0,0,0,3-7.2A7.29,7.29,0,0,1,484.84,80Z"/><path class="cls-1" d="M550.58,85.55a24.23,24.23,0,0,1-3.43,12.67,26,26,0,0,1-9.2,9.13,25.66,25.66,0,0,1-25.53,0,26,26,0,0,1-9.17-9.13,24.14,24.14,0,0,1-3.43-12.67V59.22a24.16,24.16,0,0,1,3.43-12.67,25.93,25.93,0,0,1,9.17-9.12,25.6,25.6,0,0,1,25.53,0,25.93,25.93,0,0,1,9.2,9.12,24.26,24.26,0,0,1,3.43,12.67Zm-14.53,0V59.22a10.18,10.18,0,0,0-3.2-7.54,11,11,0,0,0-15.35,0,10.18,10.18,0,0,0-3.2,7.54V85.55a10.18,10.18,0,0,0,3.2,7.54,11,11,0,0,0,15.35,0A10.18,10.18,0,0,0,536.05,85.55Z"/><path class="cls-1" d="M36.21,142h.26a5.09,5.09,0,0,0,5.09-5.09V132.3a98.07,98.07,0,0,1-10,6.58A5.09,5.09,0,0,0,36.21,142Z"/><path class="cls-1" d="M41.56,19.41a5.09,5.09,0,0,0-5.09-5.09h-.26a5.09,5.09,0,0,0-5.09,5.09V51.12A29.48,29.48,0,0,1,41.56,49Z"/><path class="cls-1" d="M46.68,128.1v23.14a5.09,5.09,0,0,0,5.09,5.09H52a5.09,5.09,0,0,0,5.09-5.09V116.29a75.34,75.34,0,0,1-4.84,6.14A65.2,65.2,0,0,1,46.68,128.1Z"/><path class="cls-1" d="M57.12,5.09A5.09,5.09,0,0,0,52,0h-.26a5.09,5.09,0,0,0-5.09,5.09V49.14c3.62.31,7.15.61,10.44,1.89Z"/><path class="cls-1" d="M72.31,53.35l.37-.12v-14a5.09,5.09,0,0,0-5.09-5.09h-.26a5.09,5.09,0,0,0-5.09,5.09V53.42A15.92,15.92,0,0,0,72.31,53.35Z"/><path class="cls-1" d="M66.4,63.58c-2.3,1.44-4.22,3-4.16,5.13h0a4.19,4.19,0,0,0,.38,1.54,2.39,2.39,0,0,0,1.09,1.15,48.64,48.64,0,0,0,9,3.44V59.54C70.59,60.91,68.51,62.26,66.4,63.58Z"/><path class="cls-1" d="M70.83,81.46c-2.76,3.58-5,7.43-5.29,12.29a38.92,38.92,0,0,1-3.3,13.59v9.76a5.09,5.09,0,0,0,5.09,5.09h.26a5.09,5.09,0,0,0,5.09-5.09V80.39h-.09A3.35,3.35,0,0,0,70.83,81.46Z"/><path class="cls-1" d="M83.15,15.08h-.26a5.09,5.09,0,0,0-5.09,5.09V51.65a17,17,0,0,1,6.58-.58.37.37,0,0,1,.13.68c-2.32,1.51-4.53,3-6.71,4.42v20c3,.76,6,1.47,8.85,2.39a.47.47,0,0,1,0,.87c-3,1.24-5.91,1-8.88.78v55.93a5.09,5.09,0,0,0,5.09,5.09h.26a5.09,5.09,0,0,0,5.1-5.09v-116A5.09,5.09,0,0,0,83.15,15.08Z"/><path class="cls-1" d="M26,53.82V52.14a5.09,5.09,0,0,0-5.09-5.09h-.26a5.09,5.09,0,0,0-5.09,5.09V63.82A43.93,43.93,0,0,1,26,53.82Z"/><rect class="cls-1" x="93.36" y="48.09" width="10.44" height="60.15" rx="5.09"/><rect class="cls-1" x="108.92" y="68.78" width="10.44" height="18.78" rx="5.09"/><path class="cls-1" d="M9.43,72.88l1-1.59V71a5.09,5.09,0,0,0-5.09-5.09H5.09A5.09,5.09,0,0,0,0,71v7.7A26.14,26.14,0,0,0,3,77.6C6,76.26,8.38,74.53,9.43,72.88Z"/></g></svg>